<svg width="119" height="56" viewBox="0 0 119 56" fill="none" xmlns="http://www.w3.org/2000/svg">
<path d="M2.57812 44V9.875H13.5703C16.5859 9.875 19.2969 10.5625 21.7031 11.9375C24.1094 13.2969 25.9844 15.2266 27.3281 17.7266C28.6875 20.2109 29.375 23 29.3906 26.0938V27.6641C29.3906 30.7891 28.7266 33.5938 27.3984 36.0781C26.0859 38.5469 24.2266 40.4844 21.8203 41.8906C19.4297 43.2812 16.7578 43.9844 13.8047 44H2.57812ZM10.8047 16.2266V37.6719H13.6641C16.0234 37.6719 17.8359 36.8359 19.1016 35.1641C20.3672 33.4766 21 30.9766 21 27.6641V26.1875C21 22.8906 20.3672 20.4062 19.1016 18.7344C17.8359 17.0625 15.9922 16.2266 13.5703 16.2266H10.8047Z" fill="#85171A"/>
<path d="M48.8109 34.9297C48.8109 33.7266 48.3813 32.7891 47.5219 32.1172C46.6781 31.4453 45.1859 30.75 43.0453 30.0312C40.9047 29.3125 39.1547 28.6172 37.7953 27.9453C33.3734 25.7734 31.1625 22.7891 31.1625 18.9922C31.1625 17.1016 31.7094 15.4375 32.8031 14C33.9125 12.5469 35.475 11.4219 37.4906 10.625C39.5063 9.8125 41.7719 9.40625 44.2875 9.40625C46.7406 9.40625 48.9359 9.84375 50.8734 10.7188C52.8266 11.5937 54.3422 12.8438 55.4203 14.4688C56.4984 16.0781 57.0375 17.9219 57.0375 20H48.8344C48.8344 18.6094 48.4047 17.5312 47.5453 16.7656C46.7016 16 45.5531 15.6172 44.1 15.6172C42.6313 15.6172 41.4672 15.9453 40.6078 16.6016C39.7641 17.2422 39.3422 18.0625 39.3422 19.0625C39.3422 19.9375 39.8109 20.7344 40.7484 21.4531C41.6859 22.1562 43.3344 22.8906 45.6938 23.6562C48.0531 24.4062 49.9906 25.2188 51.5063 26.0938C55.1938 28.2188 57.0375 31.1484 57.0375 34.8828C57.0375 37.8672 55.9125 40.2109 53.6625 41.9141C51.4125 43.6172 48.3266 44.4688 44.4047 44.4688C41.6391 44.4688 39.1313 43.9766 36.8813 42.9922C34.6469 41.9922 32.9594 40.6328 31.8188 38.9141C30.6938 37.1797 30.1313 35.1875 30.1313 32.9375H38.3813C38.3813 34.7656 38.85 36.1172 39.7875 36.9922C40.7406 37.8516 42.2797 38.2812 44.4047 38.2812C45.7641 38.2812 46.8344 37.9922 47.6156 37.4141C48.4125 36.8203 48.8109 35.9922 48.8109 34.9297Z" fill="#DC2025"/>
<path d="M67.6219 44H59.4188V9.875H67.6219V44Z" fill="#FEBA08"/>
<path d="M71.7227 18V10.8906H73.8223C74.4505 10.8906 75.0072 11.0306 75.4922 11.3105C75.9805 11.5905 76.3581 11.9876 76.625 12.502C76.8919 13.0163 77.0254 13.6055 77.0254 14.2695V14.626C77.0254 15.2998 76.8903 15.8923 76.6201 16.4033C76.3532 16.9144 75.9707 17.3083 75.4727 17.585C74.9779 17.8617 74.4098 18 73.7686 18H71.7227ZM72.958 11.8867V17.0137H73.7637C74.4115 17.0137 74.9079 16.8118 75.2529 16.4082C75.6012 16.0013 75.7786 15.4186 75.7852 14.6602V14.2646C75.7852 13.4932 75.6175 12.904 75.2822 12.4971C74.9469 12.0902 74.4603 11.8867 73.8223 11.8867H72.958ZM84.432 16.2422L85.5258 10.8906H86.7514L85.1107 18H83.9291L82.5766 12.8096L81.1947 18H80.0082L78.3676 10.8906H79.5932L80.6967 16.2324L82.0541 10.8906H83.0893L84.432 16.2422ZM89.5584 18H88.3279V10.8906H89.5584V18ZM91.677 18V10.8906H93.7766C94.4048 10.8906 94.9615 11.0306 95.4465 11.3105C95.9348 11.5905 96.3124 11.9876 96.5793 12.502C96.8462 13.0163 96.9797 13.6055 96.9797 14.2695V14.626C96.9797 15.2998 96.8446 15.8923 96.5744 16.4033C96.3075 16.9144 95.925 17.3083 95.427 17.585C94.9322 17.8617 94.3641 18 93.7229 18H91.677ZM92.9123 11.8867V17.0137H93.718C94.3658 17.0137 94.8622 16.8118 95.2072 16.4082C95.5555 16.0013 95.7329 15.4186 95.7395 14.6602V14.2646C95.7395 13.4932 95.5718 12.904 95.2365 12.4971C94.9012 12.0902 94.4146 11.8867 93.7766 11.8867H92.9123ZM102.682 16.3447H99.9283L99.3521 18H98.068L100.754 10.8906H101.862L104.552 18H103.263L102.682 16.3447ZM100.275 15.3486H102.336L101.305 12.3994L100.275 15.3486ZM109.679 16.1689C109.679 15.8564 109.568 15.6156 109.347 15.4463C109.129 15.277 108.733 15.1061 108.16 14.9336C107.587 14.7611 107.132 14.569 106.793 14.3574C106.145 13.9505 105.821 13.4199 105.821 12.7656C105.821 12.1927 106.054 11.7207 106.52 11.3496C106.988 10.9785 107.595 10.793 108.341 10.793C108.836 10.793 109.277 10.8841 109.664 11.0664C110.051 11.2487 110.356 11.5091 110.577 11.8477C110.799 12.1829 110.909 12.5557 110.909 12.9658H109.679C109.679 12.5947 109.562 12.305 109.327 12.0967C109.096 11.8851 108.764 11.7793 108.331 11.7793C107.927 11.7793 107.613 11.8656 107.389 12.0381C107.167 12.2106 107.057 12.4515 107.057 12.7607C107.057 13.0212 107.177 13.2393 107.418 13.415C107.659 13.5876 108.056 13.7568 108.609 13.9229C109.163 14.0856 109.607 14.2728 109.942 14.4844C110.278 14.6927 110.523 14.9336 110.68 15.207C110.836 15.4772 110.914 15.7946 110.914 16.1592C110.914 16.7516 110.686 17.2236 110.23 17.5752C109.778 17.9235 109.163 18.0977 108.385 18.0977C107.87 18.0977 107.397 18.0033 106.964 17.8145C106.534 17.6224 106.199 17.3587 105.958 17.0234C105.72 16.6882 105.602 16.2975 105.602 15.8516H106.837C106.837 16.2552 106.97 16.5677 107.237 16.7891C107.504 17.0104 107.887 17.1211 108.385 17.1211C108.814 17.1211 109.137 17.0348 109.352 16.8623C109.57 16.6865 109.679 16.4554 109.679 16.1689ZM116.578 16.3447H113.824L113.247 18H111.963L114.649 10.8906H115.757L118.448 18H117.159L116.578 16.3447ZM114.17 15.3486H116.231L115.201 12.3994L114.17 15.3486Z" fill="black" fill-opacity="0.6"/>
<path d="M75.4385 28.1689C75.4385 27.8564 75.3278 27.6156 75.1064 27.4463C74.8883 27.277 74.4928 27.1061 73.9199 26.9336C73.347 26.7611 72.8913 26.569 72.5527 26.3574C71.9049 25.9505 71.5811 25.4199 71.5811 24.7656C71.5811 24.1927 71.8138 23.7207 72.2793 23.3496C72.748 22.9785 73.3551 22.793 74.1006 22.793C74.5954 22.793 75.0365 22.8841 75.4238 23.0664C75.8112 23.2487 76.1156 23.5091 76.3369 23.8477C76.5583 24.1829 76.6689 24.5557 76.6689 24.9658H75.4385C75.4385 24.5947 75.3213 24.305 75.0869 24.0967C74.8558 23.8851 74.5238 23.7793 74.0908 23.7793C73.6872 23.7793 73.373 23.8656 73.1484 24.0381C72.9271 24.2106 72.8164 24.4515 72.8164 24.7607C72.8164 25.0212 72.9368 25.2393 73.1777 25.415C73.4186 25.5876 73.8158 25.7568 74.3691 25.9229C74.9225 26.0856 75.3669 26.2728 75.7021 26.4844C76.0374 26.6927 76.2832 26.9336 76.4395 27.207C76.5957 27.4772 76.6738 27.7946 76.6738 28.1592C76.6738 28.7516 76.446 29.2236 75.9902 29.5752C75.5378 29.9235 74.9225 30.0977 74.1445 30.0977C73.6302 30.0977 73.1566 30.0033 72.7236 29.8145C72.2939 29.6224 71.9587 29.3587 71.7178 29.0234C71.4801 28.6882 71.3613 28.2975 71.3613 27.8516H72.5967C72.5967 28.2552 72.7301 28.5677 72.9971 28.7891C73.264 29.0104 73.6465 29.1211 74.1445 29.1211C74.5742 29.1211 74.8965 29.0348 75.1113 28.8623C75.3294 28.6865 75.4385 28.4554 75.4385 28.1689ZM81.8373 28.3447H79.0834L78.5072 30H77.223L79.9086 22.8906H81.017L83.7074 30H82.4184L81.8373 28.3447ZM79.4301 27.3486H81.4906L80.4604 24.3994L79.4301 27.3486ZM86.2195 22.8906L88.2703 28.3398L90.3162 22.8906H91.9129V30H90.6824V27.6562L90.8045 24.5215L88.7049 30H87.8211L85.7264 24.5264L85.8484 27.6562V30H84.618V22.8906H86.2195ZM97.1936 28.1689C97.1936 27.8564 97.0829 27.6156 96.8615 27.4463C96.6434 27.277 96.2479 27.1061 95.675 26.9336C95.1021 26.7611 94.6464 26.569 94.3078 26.3574C93.66 25.9505 93.3361 25.4199 93.3361 24.7656C93.3361 24.1927 93.5689 23.7207 94.0344 23.3496C94.5031 22.9785 95.1102 22.793 95.8557 22.793C96.3505 22.793 96.7915 22.8841 97.1789 23.0664C97.5663 23.2487 97.8706 23.5091 98.092 23.8477C98.3133 24.1829 98.424 24.5557 98.424 24.9658H97.1936C97.1936 24.5947 97.0764 24.305 96.842 24.0967C96.6109 23.8851 96.2788 23.7793 95.8459 23.7793C95.4423 23.7793 95.1281 23.8656 94.9035 24.0381C94.6822 24.2106 94.5715 24.4515 94.5715 24.7607C94.5715 25.0212 94.6919 25.2393 94.9328 25.415C95.1737 25.5876 95.5708 25.7568 96.1242 25.9229C96.6776 26.0856 97.1219 26.2728 97.4572 26.4844C97.7925 26.6927 98.0383 26.9336 98.1945 27.207C98.3508 27.4772 98.4289 27.7946 98.4289 28.1592C98.4289 28.7516 98.201 29.2236 97.7453 29.5752C97.2928 29.9235 96.6776 30.0977 95.8996 30.0977C95.3853 30.0977 94.9117 30.0033 94.4787 29.8145C94.049 29.6224 93.7137 29.3587 93.4729 29.0234C93.2352 28.6882 93.1164 28.2975 93.1164 27.8516H94.3518C94.3518 28.2552 94.4852 28.5677 94.7521 28.7891C95.0191 29.0104 95.4016 29.1211 95.8996 29.1211C96.3293 29.1211 96.6516 29.0348 96.8664 28.8623C97.0845 28.6865 97.1936 28.4554 97.1936 28.1689ZM103.592 28.3447H100.838L100.262 30H98.9781L101.664 22.8906H102.772L105.462 30H104.173L103.592 28.3447ZM101.185 27.3486H103.246L102.215 24.3994L101.185 27.3486ZM108.985 27.2607H107.608V30H106.373V22.8906H108.873C109.693 22.8906 110.326 23.0745 110.772 23.4424C111.218 23.8102 111.441 24.3424 111.441 25.0391C111.441 25.5143 111.326 25.9131 111.095 26.2354C110.867 26.5544 110.548 26.8001 110.138 26.9727L111.734 29.9365V30H110.411L108.985 27.2607ZM107.608 26.2695H108.878C109.295 26.2695 109.62 26.1654 109.854 25.957C110.089 25.7454 110.206 25.4574 110.206 25.0928C110.206 24.7119 110.097 24.4173 109.879 24.209C109.664 24.0007 109.342 23.8932 108.912 23.8867H107.608V26.2695ZM116.693 28.3447H113.939L113.363 30H112.079L114.764 22.8906H115.872L118.563 30H117.274L116.693 28.3447ZM114.286 27.3486H116.346L115.316 24.3994L114.286 27.3486Z" fill="#263238" fill-opacity="0.8"/>
<path d="M73.0312 35.8906V43H71.8057V35.8906H73.0312ZM79.6943 35.8906V43H78.4688L75.2803 37.9072V43H74.0547V35.8906H75.2803L78.4785 40.9932V35.8906H79.6943ZM82.7197 43H81.2012L81.2109 42.0283H82.7197C83.1592 42.0283 83.527 41.9323 83.8232 41.7402C84.1227 41.5482 84.3473 41.2731 84.4971 40.915C84.6501 40.557 84.7266 40.1305 84.7266 39.6357V39.25C84.7266 38.8659 84.6826 38.5257 84.5947 38.2295C84.5101 37.9333 84.3831 37.6842 84.2139 37.4824C84.0479 37.2806 83.8428 37.1276 83.5986 37.0234C83.3577 36.9193 83.0794 36.8672 82.7637 36.8672H81.1719V35.8906H82.7637C83.2357 35.8906 83.667 35.9704 84.0576 36.1299C84.4482 36.2861 84.7852 36.5124 85.0684 36.8086C85.3548 37.1048 85.5745 37.4596 85.7275 37.873C85.8805 38.2865 85.957 38.7487 85.957 39.2598V39.6357C85.957 40.1468 85.8805 40.609 85.7275 41.0225C85.5745 41.4359 85.3548 41.7907 85.0684 42.0869C84.7819 42.3799 84.4401 42.6061 84.043 42.7656C83.6491 42.9219 83.208 43 82.7197 43ZM81.8799 35.8906V43H80.6543V35.8906H81.8799ZM92.3564 39.25V39.6406C92.3564 40.1777 92.2865 40.6595 92.1465 41.0859C92.0065 41.5124 91.8063 41.8753 91.5459 42.1748C91.2887 42.4743 90.9795 42.7038 90.6182 42.8633C90.2568 43.0195 89.8564 43.0977 89.417 43.0977C88.9808 43.0977 88.582 43.0195 88.2207 42.8633C87.8626 42.7038 87.5518 42.4743 87.2881 42.1748C87.0244 41.8753 86.8193 41.5124 86.6729 41.0859C86.5296 40.6595 86.458 40.1777 86.458 39.6406V39.25C86.458 38.7129 86.5296 38.2327 86.6729 37.8096C86.8161 37.3831 87.0179 37.0202 87.2783 36.7207C87.542 36.418 87.8529 36.1885 88.2109 36.0322C88.5723 35.8727 88.971 35.793 89.4072 35.793C89.8467 35.793 90.2471 35.8727 90.6084 36.0322C90.9697 36.1885 91.2806 36.418 91.541 36.7207C91.8014 37.0202 92.0016 37.3831 92.1416 37.8096C92.2848 38.2327 92.3564 38.7129 92.3564 39.25ZM91.1309 39.6406V39.2402C91.1309 38.8431 91.0918 38.4932 91.0137 38.1904C90.9388 37.8844 90.8265 37.6289 90.6768 37.4238C90.5303 37.2155 90.3496 37.0592 90.1348 36.9551C89.9199 36.8477 89.6774 36.7939 89.4072 36.7939C89.137 36.7939 88.8962 36.8477 88.6846 36.9551C88.473 37.0592 88.2923 37.2155 88.1426 37.4238C87.9961 37.6289 87.8838 37.8844 87.8057 38.1904C87.7275 38.4932 87.6885 38.8431 87.6885 39.2402V39.6406C87.6885 40.0378 87.7275 40.3893 87.8057 40.6953C87.8838 41.0013 87.9977 41.2601 88.1475 41.4717C88.3005 41.68 88.4827 41.8379 88.6943 41.9453C88.9059 42.0495 89.1468 42.1016 89.417 42.1016C89.6904 42.1016 89.9329 42.0495 90.1445 41.9453C90.3561 41.8379 90.5352 41.68 90.6816 41.4717C90.8281 41.2601 90.9388 41.0013 91.0137 40.6953C91.0918 40.3893 91.1309 40.0378 91.1309 39.6406ZM98.7217 35.8906V43H97.4961L94.3076 37.9072V43H93.082V35.8906H94.3076L97.5059 40.9932V35.8906H98.7217ZM104.335 42.0283V43H100.561V42.0283H104.335ZM100.907 35.8906V43H99.6816V35.8906H100.907ZM103.842 38.8594V39.8164H100.561V38.8594H103.842ZM104.311 35.8906V36.8672H100.561V35.8906H104.311ZM108.576 41.1689C108.576 41.0225 108.553 40.8923 108.508 40.7783C108.465 40.6644 108.389 40.5602 108.278 40.4658C108.168 40.3714 108.011 40.2803 107.81 40.1924C107.611 40.1012 107.357 40.0085 107.048 39.9141C106.709 39.8099 106.397 39.6943 106.11 39.5674C105.827 39.4372 105.58 39.2874 105.368 39.1182C105.157 38.9456 104.992 38.7487 104.875 38.5273C104.758 38.3027 104.699 38.0439 104.699 37.751C104.699 37.4613 104.759 37.1976 104.88 36.96C105.004 36.7223 105.178 36.5173 105.402 36.3447C105.63 36.1689 105.899 36.0339 106.208 35.9395C106.517 35.8418 106.859 35.793 107.233 35.793C107.761 35.793 108.215 35.8906 108.596 36.0859C108.98 36.2812 109.274 36.5433 109.479 36.8721C109.688 37.2008 109.792 37.5638 109.792 37.9609H108.576C108.576 37.7266 108.526 37.5199 108.425 37.3408C108.327 37.1585 108.177 37.0153 107.976 36.9111C107.777 36.807 107.525 36.7549 107.219 36.7549C106.929 36.7549 106.688 36.7988 106.496 36.8867C106.304 36.9746 106.161 37.0934 106.066 37.2432C105.972 37.3929 105.925 37.5622 105.925 37.751C105.925 37.8844 105.956 38.0065 106.018 38.1172C106.079 38.2246 106.174 38.3255 106.301 38.4199C106.428 38.5111 106.587 38.5973 106.779 38.6787C106.971 38.7601 107.198 38.8382 107.458 38.9131C107.852 39.0303 108.195 39.1605 108.488 39.3037C108.781 39.4437 109.025 39.6032 109.221 39.7822C109.416 39.9613 109.562 40.1647 109.66 40.3926C109.758 40.6172 109.807 40.8727 109.807 41.1592C109.807 41.4587 109.746 41.7288 109.626 41.9697C109.506 42.2074 109.333 42.4108 109.108 42.5801C108.887 42.7461 108.62 42.8747 108.308 42.9658C107.998 43.0537 107.653 43.0977 107.272 43.0977C106.931 43.0977 106.594 43.0521 106.262 42.9609C105.933 42.8698 105.633 42.7314 105.363 42.5459C105.093 42.3571 104.878 42.1227 104.719 41.8428C104.559 41.5596 104.479 41.2292 104.479 40.8516H105.705C105.705 41.0827 105.744 41.2796 105.822 41.4424C105.904 41.6051 106.016 41.7386 106.159 41.8428C106.302 41.9437 106.468 42.0186 106.657 42.0674C106.849 42.1162 107.054 42.1406 107.272 42.1406C107.559 42.1406 107.798 42.0999 107.99 42.0186C108.186 41.9372 108.332 41.8232 108.43 41.6768C108.527 41.5303 108.576 41.361 108.576 41.1689ZM111.699 35.8906V43H110.474V35.8906H111.699ZM115.579 36.8379L113.455 43H112.171L114.847 35.8906H115.667L115.579 36.8379ZM117.356 43L115.228 36.8379L115.135 35.8906H115.96L118.646 43H117.356ZM117.254 40.3633V41.335H113.387V40.3633H117.254Z" fill="#263238"/>
</svg>
