<svg width="30" height="30" viewBox="0 0 30 30" fill="none" xmlns="http://www.w3.org/2000/svg">
<path d="M23.2231 16.2472C22.6059 15.63 21.6083 15.63 20.9911 16.2472L18.475 18.7632C17.3085 18.4159 15.1318 17.6267 13.7522 16.2472C12.3726 14.8676 11.5833 12.691 11.2361 11.5245L13.7522 9.00848C14.3694 8.39132 14.3694 7.39375 13.7522 6.77659L7.4382 0.462874C6.82101 -0.154291 5.8234 -0.154291 5.20621 0.462874L0.925339 4.74357C0.325512 5.34337 -0.0122861 6.16731 0.000341814 7.00862C0.0366472 9.2563 0.63174 17.0632 6.78471 23.2159C12.9377 29.3686 20.7449 29.9621 22.9943 30C23.0021 30 23.0306 30 23.0385 30C23.8719 30 24.6596 29.6717 25.2562 29.075L29.5371 24.7943C30.1543 24.1772 30.1543 23.1796 29.5371 22.5624L23.2231 16.2472ZM23.0227 26.8416C21.0527 26.8084 14.3125 26.2796 9.0167 20.9824C3.70349 15.6695 3.1889 8.90589 3.15733 6.97547L6.32221 3.81072L10.4042 7.89254L8.3632 9.93344C7.98594 10.3091 7.82493 10.8521 7.93385 11.373C7.97173 11.5545 8.89831 15.8589 11.5186 18.4791C14.1389 21.0992 18.4435 22.0258 18.625 22.0637C19.1506 22.1757 19.6889 22.0132 20.0646 21.6359L22.1071 19.595L26.1891 23.6768L23.0227 26.8416Z" fill="#EE4248"/>
</svg>
